<svg width="32" height="32" viewBox="0 0 32 32" fill="none" xmlns="http://www.w3.org/2000/svg">
<path d="M22.7635 25.6761C21.4548 25.6761 20.2838 25.4608 19.2505 25.0303C18.2345 24.5826 17.4251 23.9799 16.8224 23.2222C16.2369 22.4472 15.9097 21.5776 15.8408 20.6132H20.7487C20.8176 21.0782 21.0329 21.4398 21.3945 21.6981C21.7561 21.9564 22.2039 22.0856 22.7377 22.0856C23.151 22.0856 23.4782 21.9995 23.7193 21.8273C23.9604 21.6551 24.0809 21.4312 24.0809 21.1557C24.0809 20.794 23.8829 20.5271 23.4868 20.3549C23.0907 20.1827 22.4364 19.9933 21.5237 19.7866C20.4904 19.58 19.6294 19.3475 18.9405 19.0892C18.2517 18.8309 17.649 18.409 17.1324 17.8235C16.633 17.238 16.3833 16.4458 16.3833 15.447C16.3833 14.586 16.6158 13.811 17.0807 13.1222C17.5457 12.4162 18.2259 11.8565 19.1214 11.4432C20.0341 11.0299 21.1276 10.8232 22.4019 10.8232C24.2962 10.8232 25.7858 11.2882 26.8707 12.2181C27.9556 13.148 28.5841 14.3707 28.7564 15.8861H24.1843C24.0982 15.4212 23.8915 15.0681 23.5643 14.8271C23.2543 14.5687 22.8324 14.4396 22.2986 14.4396C21.8853 14.4396 21.5667 14.5171 21.3428 14.6721C21.1362 14.8271 21.0329 15.0423 21.0329 15.3178C21.0329 15.6623 21.2309 15.9292 21.627 16.1186C22.0231 16.2908 22.6602 16.4716 23.5385 16.6611C24.5889 16.8849 25.4586 17.1346 26.1474 17.4102C26.8535 17.6857 27.4648 18.1334 27.9814 18.7534C28.5153 19.3561 28.7822 20.1827 28.7822 21.2332C28.7822 22.077 28.5325 22.8347 28.0331 23.5063C27.5509 24.1779 26.8535 24.7117 25.9408 25.1078C25.0453 25.4867 23.9862 25.6761 22.7635 25.6761Z" fill="#1890CF"/>
<path d="M12.3508 25.6759C10.646 25.6759 9.07891 25.2798 7.64959 24.4876C6.22027 23.6783 5.08371 22.5675 4.23989 21.1554C3.4133 19.7261 3 18.116 3 16.325C3 14.5341 3.4133 12.9325 4.23989 11.5204C5.08371 10.0911 6.22027 8.98038 7.64959 8.18823C9.07891 7.39608 10.646 7 12.3508 7C14.0729 7 15.64 7.39608 17.0521 8.18823C18.4814 8.98038 19.6094 10.0911 20.436 11.5204C21.2626 12.9325 21.6759 14.5341 21.6759 16.325C21.6759 18.116 21.2626 19.7261 20.436 21.1554C19.6094 22.5675 18.4814 23.6783 17.0521 24.4876C15.6228 25.2798 14.0557 25.6759 12.3508 25.6759ZM12.3508 20.9746C13.6424 20.9746 14.6584 20.5527 15.3989 19.7089C16.1566 18.8651 16.5355 17.7371 16.5355 16.325C16.5355 14.8785 16.1566 13.7419 15.3989 12.9153C14.6584 12.0715 13.6424 11.6496 12.3508 11.6496C11.0421 11.6496 10.0174 12.0715 9.27695 12.9153C8.53646 13.7419 8.16621 14.8785 8.16621 16.325C8.16621 17.7543 8.53646 18.8909 9.27695 19.7347C10.0174 20.5613 11.0421 20.9746 12.3508 20.9746Z" fill="#1890CF"/>
</svg>
